<?xml version="1.0" encoding="utf-8"?>
<!-- Generator: Adobe Illustrator 22.0.0, SVG Export Plug-In . SVG Version: 6.00 Build 0)  -->
<svg version="1.1" id="_x37C_" xmlns="http://www.w3.org/2000/svg" xmlns:xlink="http://www.w3.org/1999/xlink" x="0px" y="0px"
	 viewBox="0 0 253.8 88.3" style="enable-background:new 0 0 253.8 88.3;" xml:space="preserve">
<style type="text/css">
	.st0{fill-rule:evenodd;clip-rule:evenodd;fill:#727171;}
	.st1{fill-rule:evenodd;clip-rule:evenodd;fill:#0095D3;}
	.st2{fill-rule:evenodd;clip-rule:evenodd;fill:#ED6D3D;}
</style>
<g>
	<path class="st0" d="M120.3,1.6h34.1v19.1h-22.8c-0.5,0.8-1.1,1.6-1.7,2.3H157l-0.8,12.2c-0.2,2.4-0.7,4.3-1.6,5.5
		c-0.9,1.2-1.9,2-2.9,2.2c-1,0.2-3.7,0.3-8.3,0.3c-0.4-1.8-0.9-3.8-1.6-5.9c-2.2,2.5-4.8,4.6-7.8,6.4c-1.4-1.1-3.2-2.3-5.3-3.6
		c6.1-3.3,10.3-7.4,12.4-12.1h-4.3c-3.4,6-9.2,10.8-17.5,14.3c-1.1-1.3-2.5-2.7-4.3-4.4c7-2.7,11.9-6,14.6-9.9h-4.4
		c-1.8,1.6-3.7,3.1-5.7,4.4c-1-1.1-2.4-2.4-4.3-4.1c3.7-1.9,6.9-4.4,9.5-7.6h-4.5V1.6L120.3,1.6z M148.3,6.5h-21.9v2.6h21.9V6.5
		L148.3,6.5z M148.3,15.8v-2.6h-21.9v2.6H148.3L148.3,15.8z M142.2,37.1c1.6,0.2,3,0.3,4.5,0.3c1,0,1.7-0.1,2.1-0.3
		c0.4-0.2,0.7-0.5,0.9-0.9c0.3-0.4,0.5-1.5,0.6-3.3c0.2-1.8,0.3-3.4,0.4-4.9h-2.9C146.3,31.4,144.4,34.5,142.2,37.1L142.2,37.1z
		 M166.9,2h35.9v22.7H186c2,1.8,3.9,3.7,5.5,5.4L187,34c-2-2.5-4-4.8-6.1-6.8l2.9-2.5h-17V2L166.9,2z M196.8,7h-9v3.8h9V7L196.8,7z
		 M172.9,10.9h9V7h-9V10.9L172.9,10.9z M196.8,19.7v-3.8h-9v3.8H196.8L196.8,19.7z M172.9,19.7h9v-3.8h-9V19.7L172.9,19.7z
		 M192.2,31.3c-0.3,2.1-0.6,3.5-0.8,4.3c-0.2,0.8-0.6,1.3-1.3,1.6c-0.6,0.3-1.4,0.5-2.4,0.5h-5.8c-1.6,0-2.5-0.9-2.5-2.6v-8.1h-5.8
		v9.9c0,4,2.2,6.1,6.6,6.1h9.9c1.7,0,3.2-0.4,4.5-1.3c1.3-0.9,2.5-3.4,3.5-7.7C196.7,33.3,194.6,32.4,192.2,31.3L192.2,31.3z
		 M202.6,26.9l-5.5,2c1.4,3.1,2.7,6.7,4,10.6l5.7-2.1C205.4,33.7,203.9,30.1,202.6,26.9L202.6,26.9z M167,27.4
		c-1.2,3.7-2.5,7.3-4.1,10.7l5.3,2.3c1.4-3.2,2.8-6.9,4.2-11.2L167,27.4L167,27.4z M215.8,43.6V24c-0.5,0.2-1,0.4-1.5,0.6
		c-1.1-1.6-2.2-2.9-3.3-4.1c4.5-1.8,7.3-3.7,8.3-5.7h-7.9v-4.3h2.7c-0.9-1.4-1.7-2.6-2.6-3.6c1.6-1.5,3.2-3.8,4.8-6.8h5.7
		c-0.5,1.1-1,2.1-1.5,3.1h12.3v4.4h-6.1c-0.1,1.1-0.2,2.1-0.4,3h7.8v4.3h-6.8l6.3,4.2l-2.9,3.2h18.8v21.4h-5.9v-1.9h-21.9v1.9H215.8
		L215.8,43.6z M215.1,10.5h5.5c0.2-0.9,0.3-1.9,0.3-3h-3.2C216.9,8.6,216,9.6,215.1,10.5L215.1,10.5z M219.1,22.2h10.1
		c-1.9-1.7-3.6-3.3-5.2-4.6C222.9,19.3,221.3,20.9,219.1,22.2L219.1,22.2z M243.6,26.9h-21.9v3.1h21.9V26.9L243.6,26.9z M221.7,37.1
		h21.9v-2.9h-21.9V37.1L221.7,37.1z M234.8,3.3v16.4h17.6V3.3H234.8L234.8,3.3z M246.9,15.1V7.9h-6.6v7.1H246.9z"/>
	<path class="st0" d="M118.5,81.2V59.8h2.8v21.4H118.5L118.5,81.2z M126.4,74.3l2.7-0.2c0.1,1.1,0.4,1.9,0.9,2.6
		c0.5,0.7,1.2,1.2,2.1,1.7c1,0.4,2.1,0.6,3.3,0.6c1.1,0,2-0.2,2.9-0.5c0.8-0.3,1.4-0.8,1.8-1.3c0.4-0.6,0.6-1.2,0.6-1.8
		c0-0.7-0.2-1.3-0.6-1.8c-0.4-0.5-1-0.9-1.9-1.3c-0.6-0.2-1.8-0.6-3.8-1c-2-0.5-3.3-0.9-4.1-1.3c-1-0.5-1.8-1.2-2.3-2
		c-0.5-0.8-0.7-1.7-0.7-2.7c0-1.1,0.3-2.1,0.9-3c0.6-0.9,1.5-1.7,2.7-2.1c1.2-0.5,2.5-0.7,3.9-0.7c1.6,0,3,0.3,4.2,0.8
		c1.2,0.5,2.1,1.3,2.8,2.2c0.6,1,1,2.1,1,3.4l-2.7,0.2c-0.1-1.3-0.6-2.4-1.5-3.1c-0.8-0.7-2.1-1-3.7-1c-1.7,0-3,0.3-3.7,0.9
		c-0.8,0.6-1.2,1.4-1.2,2.3c0,0.8,0.3,1.4,0.8,1.9c0.5,0.5,2,1,4.3,1.5c2.3,0.5,3.9,1,4.7,1.4c1.2,0.6,2.2,1.3,2.8,2.2
		c0.6,0.9,0.9,1.9,0.9,3c0,1.1-0.3,2.2-1,3.2c-0.7,1-1.6,1.8-2.8,2.3c-1.2,0.6-2.6,0.8-4.1,0.8c-1.9,0-3.6-0.3-4.9-0.8
		c-1.3-0.6-2.3-1.4-3.1-2.5C126.9,77,126.5,75.8,126.4,74.3z"/>
	<path class="st0" d="M147.4,74.3l2.7-0.2c0.1,1.1,0.4,1.9,0.9,2.6c0.5,0.7,1.2,1.2,2.1,1.7c1,0.4,2.1,0.6,3.3,0.6
		c1.1,0,2-0.2,2.9-0.5c0.8-0.3,1.4-0.8,1.8-1.3c0.4-0.6,0.6-1.2,0.6-1.8c0-0.7-0.2-1.3-0.6-1.8c-0.4-0.5-1-0.9-1.9-1.3
		c-0.6-0.2-1.8-0.6-3.8-1c-2-0.5-3.3-0.9-4.1-1.3c-1-0.5-1.8-1.2-2.3-2c-0.5-0.8-0.7-1.7-0.7-2.7c0-1.1,0.3-2.1,0.9-3
		c0.6-0.9,1.5-1.7,2.7-2.1c1.2-0.5,2.5-0.7,3.9-0.7c1.6,0,3,0.3,4.2,0.8c1.2,0.5,2.1,1.3,2.8,2.2c0.6,1,1,2.1,1,3.4l-2.7,0.2
		c-0.2-1.3-0.6-2.4-1.5-3.1c-0.8-0.7-2.1-1-3.7-1c-1.7,0-3,0.3-3.7,0.9c-0.8,0.6-1.2,1.4-1.2,2.3c0,0.8,0.3,1.4,0.8,1.9
		c0.5,0.5,2,1,4.3,1.5c2.3,0.5,3.9,1,4.7,1.4c1.2,0.6,2.2,1.3,2.8,2.2c0.6,0.9,0.9,1.9,0.9,3c0,1.1-0.3,2.2-1,3.2
		c-0.7,1-1.6,1.8-2.8,2.3c-1.2,0.6-2.6,0.8-4.1,0.8c-1.9,0-3.6-0.3-4.9-0.8c-1.3-0.6-2.3-1.4-3.1-2.5
		C147.9,77,147.5,75.8,147.4,74.3L147.4,74.3z M169.3,81.2V59.8h4.3l5.1,15.1c0.5,1.4,0.8,2.5,1,3.2c0.2-0.8,0.6-1.9,1.1-3.4
		l5.1-14.9h3.8v21.4H187V63.3l-6.2,17.9h-2.6L172,63v18.2H169.3L169.3,81.2z M193,81.2l8.2-21.4h3l8.7,21.4h-3.2l-2.5-6.5h-8.9
		l-2.3,6.5H193L193,81.2z M199.2,72.4h7.2l-2.2-5.9c-0.7-1.8-1.2-3.3-1.5-4.4c-0.3,1.4-0.7,2.7-1.2,4.1L199.2,72.4L199.2,72.4z
		 M216.4,81.2V59.8h9.5c1.9,0,3.4,0.2,4.3,0.6c1,0.4,1.8,1.1,2.4,2c0.6,1,0.9,2,0.9,3.2c0,1.5-0.5,2.8-1.5,3.8c-1,1-2.5,1.7-4.5,2
		c0.8,0.4,1.3,0.7,1.7,1.1c0.8,0.8,1.6,1.7,2.3,2.8l3.7,5.8h-3.6l-2.8-4.4c-0.8-1.3-1.5-2.3-2-2.9c-0.5-0.7-1-1.2-1.4-1.4
		c-0.4-0.3-0.9-0.5-1.3-0.6c-0.3-0.1-0.8-0.1-1.6-0.1h-3.3v9.5H216.4L216.4,81.2z M219.2,69.3h6.1c1.3,0,2.3-0.1,3-0.4
		c0.7-0.3,1.3-0.7,1.7-1.3c0.4-0.6,0.6-1.2,0.6-1.9c0-1-0.4-1.8-1.1-2.5c-0.7-0.7-1.9-1-3.5-1h-6.8V69.3L219.2,69.3z M243.9,81.2
		V62.4h-7v-2.5h16.9v2.5h-7.1v18.8H243.9z"/>
	<rect x="0" y="1.5" class="st1" width="12.4" height="87.1"/>
	<rect x="55" y="1.5" class="st1" width="12.4" height="66.1"/>
	<rect x="0" y="1.5" class="st1" width="67.4" height="12.4"/>
	<rect x="82.8" y="22.6" class="st0" width="12.4" height="66"/>
	<rect x="82.8" y="1.5" class="st2" width="12.4" height="13.1"/>
	<rect x="27.8" y="22.5" class="st0" width="12.4" height="66.1"/>
	<rect x="27.8" y="76.2" class="st0" width="67.4" height="12.4"/>
</g>
</svg>
